<svg id="icons" xmlns="http://www.w3.org/2000/svg" viewBox="0 0 168.12 168.12"><defs><style>.cls-1{fill:#cc2127;}.cls-2{fill:#911a22;}.cls-3{fill:#fff;}</style></defs><title>icon</title><g id="events"><circle id="i-circle" class="cls-1" cx="84.06" cy="84.06" r="84.06"/><path id="i-shadow" class="cls-2" d="M168.12,84.06v0L129.48,45.38l-6.58,0L108.21,30.71,102.55,36,112,45.44l-32.21.12L64.93,30.74l-5.85,5.51,9.36,9.36-24.06.09L43.71,56.27l-1.53-1.53-5.85,5.51L43,67l-4.34,68.86,31.06,31.06A84,84,0,0,0,168.12,84.06Z"/><g id="i-icon"><path class="cls-3" d="M131.83,64.55v2.64c0,20.67-.07,41.35.05,62a8.94,8.94,0,0,1-8.83,9C97,138,71,138.09,45,138.09c-5.24,0-8.67-3.44-8.67-8.74q0-31.12,0-62.25c0-.82.07-1.64,0.12-2.55h95.42ZM59.92,93.23H43.32v16.53h16.6V93.23Zm43.16,16.6V93.18H86.46v16.65h16.62ZM43.28,71.49V87.93H59.87V71.49H43.28Zm59.82,0H86.47V88H103.1V71.53ZM81.54,109.84V93.2H65.19v16.64H81.54Zm43.23-16.65H108.31v16.62h16.46V93.19ZM59.85,131.14V114.76H43.3v16.38H59.85Zm43.2,0V114.75H86.5v16.38H103ZM81.5,88V71.53H65.23V88H81.5Zm43.26-16.46H108.17c0,5.24,0,10.35.05,15.46a1.57,1.57,0,0,0,1.12,1c5.1,0.07,10.2,0,15.41,0V71.54ZM65.16,131.09H81.53V114.76H65.16v16.32Zm59.62-16.21H108.37V131h16.5c0-5.08,0-10,0-14.85C124.87,115.74,124.81,115.3,124.78,114.88Z"/><path class="cls-3" d="M36.33,60.24c0-3.57-.23-7,0.06-10.43,0.32-3.72,4.32-7,8.19-7,4.59-.05,9.18,0,14.23,0,0-3,0-6,0-8.93s1.22-4,3.91-3.89a2.64,2.64,0,0,1,2.93,3c0,3.19,0,6.39,0,9.7H102c0-2.89,0-5.69,0-8.5S103.28,30,105.44,30c2.54-.06,3.79,1.07,3.85,3.68,0.06,3,0,5.93,0,9.13h13.51c5.37,0,9,3.66,9,9.06,0,2.75,0,5.49,0,8.4H36.33Zm22.5-13.56c-2.56,2.54-3.13,5.38-1.91,7.72,1.36,2.61,3.83,3.74,7,3.19a6.65,6.65,0,0,0,4.8-5.23,5.28,5.28,0,0,0-3-5.48,46.76,46.76,0,0,1-.05,5,3.9,3.9,0,0,1-1.15,2.49c-2.36,1.81-5.29.36-5.59-2.7C58.71,50.2,58.83,48.68,58.83,46.67Zm50.47,0.06c0,1.81.1,3.26,0,4.7-0.17,2-1.16,3.58-3.26,3.75a3.23,3.23,0,0,1-3.72-2.93c-0.26-1.69-.35-3.41-0.52-5.15a5.85,5.85,0,0,0-.85,8.44,6.25,6.25,0,0,0,9,.56C112.68,53.36,112.58,49.8,109.3,46.73Z"/></g></g></svg>